<?xml version="1.0" standalone="no"?>
<!DOCTYPE svg PUBLIC "-//W3C//DTD SVG 20010904//EN"
 "http://www.w3.org/TR/2001/REC-SVG-20010904/DTD/svg10.dtd">
<svg version="1.0" xmlns="http://www.w3.org/2000/svg"
 width="1024.000000pt" height="1024.000000pt" viewBox="0 0 1024.000000 1024.000000"
 preserveAspectRatio="xMidYMid meet">
<metadata>
Created by potrace 1.14, written by Peter Selinger 2001-2017
</metadata>
<g transform="translate(0.000000,1024.000000) scale(0.100000,-0.100000)"
fill="#000000" stroke="none">
<path d="M0 5120 l0 -5120 5120 0 5120 0 0 5120 0 5120 -5120 0 -5120 0 0
-5120z m5345 2479 c33 -7 63 -15 67 -18 18 -16 97 -599 98 -721 l0 -45 -376 0
-375 0 6 65 c23 254 76 654 90 693 5 12 63 27 170 41 50 7 256 -3 320 -15z
m280 -68 c168 -79 384 -232 457 -324 76 -95 160 -231 219 -354 57 -118 69
-153 50 -153 -5 0 -67 13 -139 29 -172 40 -375 77 -496 92 -54 7 -99 18 -101
23 -1 6 -8 54 -15 106 -17 139 -37 257 -71 420 -48 231 -47 214 -13 206 16 -4
65 -24 109 -45z m-885 1 c0 -4 -5 -23 -10 -42 -20 -71 -69 -330 -90 -475 -12
-82 -24 -166 -28 -185 l-7 -35 -150 -21 c-170 -25 -323 -54 -471 -90 -56 -13
-107 -24 -114 -24 -15 0 -7 25 46 138 55 119 99 192 190 318 76 105 147 169
299 267 61 39 240 134 285 150 23 8 50 8 50 -1z m735 -874 c12 -11 14 -752 2
-765 -14 -14 -754 -10 -768 4 -9 9 -12 103 -12 370 0 197 3 368 7 380 7 21 14
23 124 26 187 6 636 -4 647 -15z m290 -13 c137 -10 351 -37 535 -66 115 -18
107 -13 122 -77 18 -78 16 -389 -3 -457 -14 -49 -15 -50 -59 -56 -25 -4 -108
-16 -185 -28 -162 -24 -382 -48 -473 -53 l-64 -3 -1 372 c-1 241 2 374 8 377
6 2 17 3 25 1 8 -2 51 -7 95 -10z m-1179 -408 l0 -377 -45 5 c-26 2 -95 9
-156 15 -179 18 -537 70 -557 81 -10 5 -18 13 -18 17 0 4 -5 34 -10 67 -24
141 -7 446 26 471 14 12 71 22 274 50 177 24 455 53 475 49 6 -1 10 -136 11
-378z m-660 -396 c141 -35 326 -70 474 -91 80 -11 150 -22 156 -24 5 -2 16
-48 23 -102 18 -142 48 -320 78 -459 14 -66 28 -135 31 -154 4 -33 4 -34 -24
-27 -84 21 -337 170 -475 279 -99 79 -250 302 -330 487 -21 49 -39 95 -39 100
0 14 17 13 106 -9z m2441 -128 c-68 -156 -213 -380 -293 -457 -50 -48 -216
-162 -317 -219 -98 -55 -213 -104 -222 -95 -3 3 6 56 19 119 47 218 60 289 96
545 l12 81 127 18 c143 19 370 63 511 98 52 13 99 21 103 17 5 -4 -12 -52 -36
-107z m-897 -23 c0 -23 -39 -375 -50 -455 -27 -197 -42 -281 -54 -293 -7 -7
-65 -20 -130 -29 -101 -14 -135 -15 -235 -5 -149 15 -187 26 -194 55 -8 29
-43 277 -56 392 -6 50 -15 128 -21 174 -5 46 -10 105 -10 130 l0 46 375 0
c327 0 375 -2 375 -15z m1995 -1433 l60 -13 3 -52 c3 -54 -11 -71 -22 -27 -12
47 -122 78 -203 56 -62 -17 -93 -59 -93 -126 0 -46 4 -58 29 -82 29 -29 44
-37 183 -93 94 -38 152 -95 163 -159 31 -183 -142 -293 -360 -229 l-80 24 -3
57 c-3 64 6 72 28 24 25 -53 72 -77 152 -77 88 0 140 24 168 80 54 105 7 170
-175 240 -154 60 -211 136 -184 243 30 120 156 170 334 134z m-4546 -13 c139
-41 183 -186 87 -285 -41 -42 -107 -71 -181 -78 l-60 -6 -3 -143 c-2 -113 1
-150 13 -174 8 -17 15 -33 15 -35 0 -7 -129 -2 -134 6 -3 5 1 14 9 21 22 19
22 661 0 684 -8 8 -15 17 -15 20 0 13 218 5 269 -10z m351 11 c0 -3 -6 -16
-14 -28 -12 -20 -7 -45 58 -254 39 -128 73 -233 77 -233 3 0 40 109 83 243 74
230 89 267 101 255 3 -2 16 -41 30 -86 14 -45 37 -119 51 -164 14 -46 36 -117
48 -157 13 -41 27 -76 33 -78 6 -2 17 20 26 49 8 29 27 91 42 138 78 250 86
283 76 293 -20 20 -11 27 39 27 55 0 59 -4 31 -34 -10 -12 -35 -75 -56 -141
-76 -248 -104 -343 -131 -435 -26 -92 -38 -119 -48 -109 -3 3 -21 54 -40 114
-122 389 -129 407 -140 374 -3 -8 -23 -75 -46 -149 -83 -268 -112 -352 -120
-344 -4 5 -20 50 -35 99 -30 102 -78 259 -137 450 -22 72 -46 137 -54 146 -8
8 -14 19 -14 22 0 4 32 7 70 7 39 0 70 -2 70 -5z m1189 -330 c149 -401 138
-374 156 -381 35 -14 11 -24 -55 -24 -73 0 -75 1 -61 28 6 12 -6 58 -43 157
l-51 140 -91 3 c-65 2 -94 -1 -101 -10 -6 -7 -24 -51 -41 -98 -16 -47 -38
-105 -48 -129 -13 -34 -15 -48 -6 -62 18 -28 16 -29 -38 -29 -27 0 -50 2 -50
5 0 3 9 18 20 33 14 20 220 555 266 691 3 9 8 11 14 5 5 -5 63 -154 129 -329z
m841 30 c107 -168 197 -305 202 -305 4 0 8 125 8 278 0 229 -3 282 -15 298
-23 30 -18 34 35 34 51 0 60 -6 38 -28 -10 -10 -14 -101 -18 -360 l-5 -347
-34 0 c-33 0 -36 3 -222 300 -104 165 -194 304 -199 309 -7 7 -10 -91 -10
-281 0 -246 2 -292 15 -303 26 -22 16 -30 -34 -30 -53 0 -72 13 -44 29 17 9
18 34 18 341 0 304 -1 333 -17 344 -29 21 -21 26 35 26 l53 0 194 -305z m828
250 l2 -50 -25 30 -25 30 -130 3 -130 4 0 -141 0 -141 102 0 c91 0 104 2 125
22 l23 21 0 -61 c0 -34 -2 -62 -5 -62 -3 0 -14 9 -25 20 -17 17 -33 20 -120
20 l-100 0 0 -170 0 -170 128 0 c139 0 164 8 183 58 15 39 31 13 27 -44 l-3
-49 -222 -3 c-123 -1 -223 1 -223 5 0 5 7 17 15 27 13 17 15 73 15 336 0 263
-2 319 -15 336 -8 10 -15 22 -15 27 0 4 93 6 208 5 l207 -3 3 -50z m227 45 c3
-5 2 -10 -4 -10 -25 0 -17 -50 40 -235 33 -110 65 -215 71 -233 5 -19 13 -31
16 -27 4 3 43 117 87 252 44 135 84 243 90 241 9 -3 135 -388 150 -460 4 -15
10 -30 15 -33 8 -5 17 19 89 255 23 74 46 145 51 158 13 30 13 69 0 77 -24 15
-6 25 45 25 30 0 55 -3 55 -6 0 -3 -9 -13 -19 -22 -11 -10 -35 -67 -56 -137
-20 -66 -54 -176 -75 -245 -21 -69 -50 -165 -65 -215 -15 -49 -30 -94 -35 -98
-4 -5 -13 6 -18 25 -6 18 -38 121 -72 228 -34 107 -65 206 -69 220 -16 54 -25
34 -131 -310 -23 -74 -43 -141 -45 -147 -10 -31 -26 -6 -54 85 -16 53 -55 180
-86 282 -31 102 -64 208 -72 237 -9 29 -24 61 -34 72 -11 11 -19 23 -19 26 0
10 139 5 145 -5z m-2178 -1342 c93 -87 4 -246 -118 -209 -75 23 -105 97 -70
175 11 25 21 46 23 46 2 0 21 6 42 14 46 16 88 7 123 -26z m2482 31 c49 -17
40 -38 -16 -36 -43 2 -48 -1 -51 -20 -3 -18 5 -26 35 -40 57 -26 73 -43 73
-78 0 -55 -67 -90 -119 -63 -45 24 -37 38 16 31 38 -4 52 -2 62 11 20 24 6 44
-44 66 -56 24 -74 60 -50 97 9 13 26 28 38 33 12 5 22 9 23 9 1 1 15 -4 33
-10z m-3101 -16 c5 -10 17 -48 28 -85 10 -38 21 -68 24 -68 3 0 18 38 34 85
37 109 51 109 87 2 14 -42 29 -80 32 -83 3 -3 18 33 32 80 17 56 31 86 41 86
20 0 18 -12 -18 -129 -28 -91 -48 -124 -63 -109 -3 3 -17 38 -31 79 -15 41
-30 78 -34 82 -4 5 -20 -29 -36 -75 -42 -120 -54 -117 -98 25 -20 62 -36 116
-36 120 0 15 30 6 38 -10z m948 -8 c22 -30 17 -71 -12 -94 l-26 -21 31 -42
c51 -68 35 -99 -16 -32 -67 87 -83 91 -83 18 0 -37 -3 -44 -20 -44 -19 0 -20
7 -20 113 0 63 3 117 8 121 4 4 33 6 66 4 42 -3 62 -10 72 -23z m204 -80 l0
-105 51 0 c43 0 50 -3 47 -17 -2 -14 -15 -19 -56 -21 -78 -5 -82 2 -82 128 0
108 3 120 27 120 10 0 13 -24 13 -105z m417 72 c24 -24 28 -35 28 -88 0 -55
-3 -63 -31 -89 -34 -29 -114 -48 -153 -35 -20 6 -21 14 -21 127 l0 120 75 -4
c66 -3 78 -7 102 -31z m433 -51 c35 -47 67 -83 72 -80 4 3 8 41 8 85 0 60 3
80 13 77 9 -4 12 -36 12 -119 0 -93 -3 -114 -15 -114 -8 0 -40 34 -72 75 -32
41 -62 76 -68 78 -6 2 -10 -27 -10 -77 0 -65 -3 -81 -15 -81 -12 0 -15 20 -15
120 0 93 3 120 13 120 7 0 42 -38 77 -84z m410 69 c0 -12 -13 -15 -56 -15
l-55 0 3 -37 c3 -37 4 -38 46 -41 23 -2 42 -7 42 -12 0 -5 -19 -10 -42 -12
-42 -3 -43 -4 -46 -40 l-3 -37 53 -3 c39 -2 53 -7 53 -18 0 -19 -110 -27 -131
-9 -10 8 -14 38 -14 119 0 58 3 110 7 113 3 4 37 7 75 7 54 0 68 -3 68 -15z
m165 3 c2 -7 14 -46 26 -86 12 -40 24 -70 28 -67 3 4 18 41 32 83 35 105 50
105 84 3 15 -45 31 -81 36 -81 4 0 18 34 31 76 19 68 39 97 54 81 7 -7 -64
-234 -74 -241 -17 -10 -30 12 -57 92 -15 46 -31 80 -35 75 -4 -4 -18 -39 -30
-78 -39 -123 -54 -120 -96 16 -37 118 -40 139 -20 139 9 0 19 -6 21 -12z"/>
<path d="M2765 4208 c-3 -8 -4 -75 -3 -149 l3 -134 34 -3 c46 -5 111 22 147
59 25 26 29 38 28 85 0 87 -50 134 -156 149 -37 6 -49 4 -53 -7z"/>
<path d="M4287 4059 c-9 -24 -26 -69 -37 -99 -11 -30 -20 -58 -20 -62 0 -5 34
-8 75 -8 87 0 87 0 50 92 -14 34 -25 67 -25 73 0 6 -6 20 -14 30 -12 17 -14
15 -29 -26z"/>
<path d="M4035 2884 c-32 -34 -33 -91 -4 -128 17 -21 29 -26 65 -26 39 0 47 4
64 33 24 38 25 68 5 106 -25 50 -91 57 -130 15z"/>
<path d="M4400 2870 c0 -39 1 -40 35 -40 24 0 37 6 45 20 17 32 -4 60 -45 60
-34 0 -35 -1 -35 -40z"/>
<path d="M4984 2897 c-3 -8 -4 -47 -2 -88 l3 -74 44 -3 c62 -5 91 24 91 89 0
39 -4 51 -26 68 -31 24 -102 29 -110 8z"/>
</g>
</svg>
